<svg width="20" height="20" viewBox="0 0 20 20" fill="none" xmlns="http://www.w3.org/2000/svg">
<path d="M9.552 19.12C8.696 19.12 8.012 18.896 7.5 18.448C6.996 17.992 6.744 17.376 6.744 16.6H8.244C8.244 16.976 8.364 17.272 8.604 17.488C8.844 17.704 9.164 17.812 9.564 17.812C9.964 17.812 10.28 17.7 10.512 17.476C10.744 17.252 10.86 16.948 10.86 16.564V15.988C10.86 15.596 10.748 15.292 10.524 15.076C10.3 14.852 9.984 14.74 9.576 14.74H7.044V10.24H12.036V11.596H8.46L8.472 13.42H9.648C10.512 13.42 11.18 13.644 11.652 14.092C12.124 14.54 12.36 15.172 12.36 15.988V16.564C12.36 17.356 12.108 17.98 11.604 18.436C11.108 18.892 10.424 19.12 9.552 19.12Z" fill="black" style="fill:black;fill-opacity:1;"/>
<path d="M6.5 3.5H12.3333M12.3333 3.5L9.83333 1M12.3333 3.5L9.83333 6" stroke="black" style="stroke:black;stroke-opacity:1;" stroke-width="1.5" stroke-linecap="round" stroke-linejoin="round"/>
</svg>
