<svg width="20" height="20" viewBox="0 0 20 20" fill="none" xmlns="http://www.w3.org/2000/svg">
<path d="M1 7C1 6.44772 1.44772 6 2 6H4.13008C4.36879 6 4.59962 5.91461 4.78087 5.75926L7.61065 3.33373C7.80369 3.16826 8.10185 3.23765 8.202 3.47134C9.98875 7.64041 9.98875 12.3596 8.202 16.5287C8.10185 16.7624 7.80369 16.8317 7.61065 16.6663L4.78087 14.2407C4.59962 14.0854 4.36879 14 4.13008 14H2C1.44772 14 1 13.5523 1 13V10V7Z" stroke="black" style="stroke:black;stroke-opacity:1;" stroke-width="1.5"/>
<path d="M13.4721 7.24997C13.9549 8.035 14.2224 8.93326 14.248 9.85447C14.2735 10.7757 14.0561 11.6874 13.6177 12.498" stroke="black" style="stroke:black;stroke-opacity:1;" stroke-width="1.5" stroke-linecap="round"/>
<path d="M16.3674 4.75412C17.5222 6.1558 18.1822 7.89935 18.2451 9.71437C18.3079 11.5294 17.7702 13.3144 16.7151 14.7927" stroke="black" stroke-opacity="0.2" style="stroke:black;stroke-opacity:0.2;" stroke-width="1.5" stroke-linecap="round"/>
</svg>
